# xmcd
#
# Track frame offsets: 
#        187
#        16890
#        37062
#        58175
#        77405
#        98150
#        118352
#        134370
#        152592
#        179030
#
# Disc length: 2668 seconds
#
# Revision: 0
# Processed by: cddbd v1.5.2PL0 Copyright (c) Steve Scherf et al.
# Submitted via: ExactAudioCopyFreeDBPlugin 1.0
#
DISCID=850a6a0a
DTITLE=緑川光 - それは決して楽な道程ではないだろう
DYEAR=1995
DGENRE=JPop
TTITLE0=想い出のはじまり
TTITLE1=言えなかった想い
TTITLE2=沈黙の迷子たち
TTITLE3=夢の行方
TTITLE4=愛と呼べばいいのにね
TTITLE5=時代というエクスプレス
TTITLE6=Who’s Like A Loser？
TTITLE7=その時、君は知るだろう
TTITLE8=それは決して楽な道程ではないだろう
TTITLE9=Deep Night
EXTD=
EXTT0=
EXTT1=
EXTT2=
EXTT3=
EXTT4=
EXTT5=
EXTT6=
EXTT7=
EXTT8=
EXTT9=
PLAYORDER=
